<svg xmlns="http://www.w3.org/2000/svg" viewBox="0 0 24.69 26.12"><defs><style>.cls-1{fill:none;stroke:#e5d96e;stroke-linecap:round;stroke-miterlimit:10;stroke-width:2px;}</style></defs><g id="Layer_2" data-name="Layer 2"><g id="Layer_2-2" data-name="Layer 2"><path class="cls-1" d="M8.34,13.48c3.21.31,2.91-3.59,2.81-6-.05-1-1-3.2.24-3.32S13.3,6,13.49,6.88c.51,2.37-.29,5.75,3.26,6.18,1.76.21,2.15-1.26,4.12-.7a4.13,4.13,0,0,1,2.76,4.33c-.64,3.2-6,.62-8.27,0-4.38-1.12-4.07,1.16-4.56,4.79-1.2,9-15.95-1.38-6.85-4.33.93-.3,3.2-.05,3.43-1.37.15-.89-2.2-1.93-2-3,.26-1.59,2-.72,2.93-1.83,1.14-1.34.15-4.17,0-5.68S8,2.48,9.2,1.62a5.75,5.75,0,0,1,4.05-.43C17.38,2.85,13.8,9,17.44,11"/></g></g></svg>