<svg xmlns="http://www.w3.org/2000/svg" viewBox="0 0 19.58 17.86"><defs><style>.cls-1{fill:none;stroke:#e5d96e;stroke-linecap:round;stroke-miterlimit:10;stroke-width:2px;}</style></defs><g id="Layer_2" data-name="Layer 2"><g id="Layer_2-2" data-name="Layer 2"><path class="cls-1" d="M8.88,16.83C4.62,17.31,1.16,12.3,1,8.55c-.21-5,5.56-8.77,10.3-7.18,3.53,1.19,8.34,7,7.06,11.12C17.59,15,12.1,15.81,9.69,15.2,6.22,14.32,3.3,9.11,5.06,5.63,8-.07,15,2.75,15.94,8.17c.74,4.21-5.68,7-7.87,3.34C7.18,10,7.56,5.44,10,5.69c1.22.13,2.43,3.18,1.31,4.05s-1.1-2.12-1-2.63c.93.26,1.26,1.07,1.34,2.15-.12.47-.28.08-.57.25"/></g></g></svg>