<svg xmlns="http://www.w3.org/2000/svg" viewBox="0 0 26.01 24.16"><path d="M6.92 18c1.72-1 4.42-4 4-6.12-.68-3.55-3.4-1.88-5.46-1.23-6.63 2.09-5.36-7.95.37-6.42 2.64.7 3 1.9 5.67 0C13.3 3 14.67.38 17.41 1.13c4.53 1.25-6.67 10.73 2.27 7.79 1.62-.53 4.46-1.78 5.24 1.31.59 2.27-2 3.89-3.66 4.24-2.1.44-4.79-1.27-5.31 2.4-.28 2 2.41 4.66-.52 5.9-6 2.56-.58-8.31-.64-9.12-.13-1.83-2.71-2.41-2.63-4.37s3.05-2.53 2.05-4.36" data-name="Layer 2" style="fill:none;stroke:#e5d96e;stroke-linecap:round;stroke-miterlimit:10;stroke-width:2px"/></svg>