<svg xmlns="http://www.w3.org/2000/svg" viewBox="0 0 41 52.36"><defs><style>.cls-1{fill:none;stroke:#fff;stroke-linecap:round;stroke-linejoin:round;stroke-width:2px;}</style></defs><g id="Layer_2" data-name="Layer 2"><g id="Layer_3" data-name="Layer 3"><line class="cls-1" x1="30.2" y1="27.35" x2="30.2" y2="31.89"/><line class="cls-1" x1="27.92" y1="29.62" x2="32.47" y2="29.62"/><line class="cls-1" x1="13.87" y1="12.79" x2="13.88" y2="17.34"/><line class="cls-1" x1="11.6" y1="15.07" x2="16.15" y2="15.07"/><line class="cls-1" x1="27.07" y1="1" x2="27.07" y2="5.54"/><line class="cls-1" x1="24.8" y1="3.27" x2="29.35" y2="3.27"/><path class="cls-1" d="M20.5,51.36S18.83,48,11.25,48C3.12,48,1,51.36,1,51.36V26.19a14.18,14.18,0,0,1,9.75-3.67,15.14,15.14,0,0,1,9.75,3.67Z"/><path class="cls-1" d="M40,51.36S38.34,48,30.75,48c-8.13,0-10.25,3.33-10.25,3.33V26.19a14.18,14.18,0,0,1,9.75-3.67A15.14,15.14,0,0,1,40,26.19Z"/><path class="cls-1" d="M4.18,30.81a14.26,14.26,0,0,1,5.88-1.6,15.45,15.45,0,0,1,7.26,1.41"/><path class="cls-1" d="M4,37.39A14.27,14.27,0,0,1,9.86,35.8a15.51,15.51,0,0,1,7.26,1.41"/></g></g></svg>