<svg xmlns="http://www.w3.org/2000/svg" viewBox="0 0 44.88 39.45"><defs><style>.cls-1{fill:#fff;}</style></defs><g id="Layer_2" data-name="Layer 2"><g id="Layer_3" data-name="Layer 3"><path class="cls-1" d="M41.25,3.66a12.43,12.43,0,0,0-17.57,0L22.45,4.9,21.21,3.65a12.43,12.43,0,0,0-17.58,0,12.43,12.43,0,0,0,0,17.58L21.52,39.07a1.28,1.28,0,0,0,1.81,0l17.9-17.84a12.43,12.43,0,0,0,0-17.58ZM39.42,19.43l-17,16.93-17-17A9.85,9.85,0,1,1,19.39,5.47l2.15,2.15a1.29,1.29,0,0,0,1.82,0l2.13-2.13a9.85,9.85,0,0,1,16.82,7A9.75,9.75,0,0,1,39.42,19.43Z"/></g></g></svg>