<svg xmlns="http://www.w3.org/2000/svg" viewBox="0 0 41.71 56.4"><defs><style>.cls-1,.cls-3{fill:none;stroke-linecap:round;stroke-width:3px;}.cls-1{stroke:#46bdc6;stroke-linejoin:round;}.cls-2{fill:#2f5e63;}.cls-3{stroke:#e5d96e;stroke-miterlimit:10;}.cls-4{fill:#e26b54;}</style></defs><g id="Layer_2" data-name="Layer 2"><g id="Layer_2-2" data-name="Layer 2"><path class="cls-1" d="M20,8.4c1.6-4.69,7.33-7.18,12.81-5.56s8.61,6.75,7,11.44l.4-2c-.81,6.72-7.1,8.87-11.65,11.83a21,21,0,0,0-6.09,5.35C21,31.5,19.7,36.78,19.7,36.78"/><path class="cls-2" d="M30.5,54.51a2.61,2.61,0,1,1-1.68-3.36A2.65,2.65,0,0,1,30.5,54.51Z"/><path class="cls-3" d="M28,9.49C26.15,3.48,18.79.14,11.59,2S.07,10.33,1.93,16.35l-.42-2.59c.75,8.57,8.84,11.5,14.64,15.41a26.67,26.67,0,0,1,7.69,7c1.84,2.67,3.24,9.42,3.24,9.42"/><path class="cls-4" d="M15.19,45.78a2.38,2.38,0,1,0,1.53-3.06A2.41,2.41,0,0,0,15.19,45.78Z"/><path class="cls-1" d="M20,8.4c1.6-4.69,7.33-7.18,12.81-5.56s8.61,6.75,7,11.44l.4-2c-.81,6.72-7.1,8.87-11.65,11.83"/></g></g></svg>