<svg xmlns="http://www.w3.org/2000/svg" viewBox="0 0 14.34 18.66"><defs><style>.cls-1{fill:#2f5e63;}</style></defs><g id="Layer_2" data-name="Layer 2"><g id="Layer_3" data-name="Layer 3"><path class="cls-1" d="M13.32,7.53H13V5.83A5.81,5.81,0,0,0,7.34,0H7A5.81,5.81,0,0,0,1.38,5.83v1.7H1a1.19,1.19,0,0,0-1,1.3v8.53a1.19,1.19,0,0,0,1,1.3h12.3a1.19,1.19,0,0,0,1-1.3V8.83A1.19,1.19,0,0,0,13.32,7.53Zm-5,5.56v2.57a.55.55,0,0,1-.54.55H6.56A.55.55,0,0,1,6,15.66V13.09a1.56,1.56,0,0,1,1-2.66h.34a1.56,1.56,0,0,1,1,2.66Zm2.24-5.56H3.78V5.83a3.39,3.39,0,1,1,6.78,0v1.7Z"/></g></g></svg>