<svg xmlns="http://www.w3.org/2000/svg" viewBox="0 0 97.63 111.79"><defs><style>.cls-1{fill:none;stroke:#fff;stroke-linecap:round;stroke-linejoin:round;stroke-width:4px;}.cls-2{fill:#fff;}</style></defs><g id="Layer_2" data-name="Layer 2"><g id="Layer_4" data-name="Layer 4"><polyline class="cls-1" points="27.43 93.4 10.69 97.93 2 65.84 34.09 57.15 38.53 73.55"/><path class="cls-2" d="M33.54,85.4A2.08,2.08,0,0,1,33,81.32a2,2,0,0,1,.54-.07,2.08,2.08,0,0,1,.54,4.08A2,2,0,0,1,33.54,85.4Z"/><path class="cls-2" d="M33.54,82.25a1.08,1.08,0,0,1,1,.8,1,1,0,0,1-.1.81,1.07,1.07,0,0,1-.66.5.9.9,0,0,1-.28,0,1.07,1.07,0,0,1-1-.79,1.12,1.12,0,0,1,.11-.82,1,1,0,0,1,.65-.5.9.9,0,0,1,.28,0m0-2a2.8,2.8,0,0,0-.8.11,3.07,3.07,0,0,0,.8,6,3.19,3.19,0,0,0,.8-.1,3.08,3.08,0,0,0-.8-6Z"/><path class="cls-2" d="M17.18,89.32a2.08,2.08,0,1,1,2-2.62,2.05,2.05,0,0,1-.2,1.57,2.14,2.14,0,0,1-1.81,1Z"/><path class="cls-2" d="M17.19,86.16a1.08,1.08,0,0,1,.27,2.12,1.27,1.27,0,0,1-.28,0,1.08,1.08,0,0,1-.93-1.61,1.08,1.08,0,0,1,.65-.5,1,1,0,0,1,.29,0m0-2a3.22,3.22,0,0,0-.81.11,3.07,3.07,0,0,0,.8,6,3.21,3.21,0,0,0,.81-.1,3.08,3.08,0,0,0-.8-6Z"/><path class="cls-2" d="M12.7,74.17a2.08,2.08,0,0,1-.54-4.08A2,2,0,0,1,12.7,70a2.09,2.09,0,0,1,2,1.54,2.08,2.08,0,0,1-1.47,2.54A2,2,0,0,1,12.7,74.17Z"/><path class="cls-2" d="M12.7,71a1.07,1.07,0,0,1,1,.8,1,1,0,0,1-.1.81,1.07,1.07,0,0,1-.66.5.9.9,0,0,1-.28,0,1.08,1.08,0,0,1-1-.79,1.12,1.12,0,0,1,.11-.82,1,1,0,0,1,.65-.5.9.9,0,0,1,.28,0m0-2a2.8,2.8,0,0,0-.8.11,3.07,3.07,0,0,0,.8,6,2.76,2.76,0,0,0,.8-.11,3.07,3.07,0,0,0-.8-6Z"/><path class="cls-2" d="M28.06,69.64a2.06,2.06,0,0,1-2-1.53,2.08,2.08,0,0,1,1.45-2.55,2.08,2.08,0,1,1,1.09,4A2,2,0,0,1,28.06,69.64Z"/><path class="cls-2" d="M28.07,66.49a1.09,1.09,0,0,1,1,.8,1.07,1.07,0,0,1-.76,1.31,1,1,0,0,1-.29,0,1.07,1.07,0,0,1-1-.79,1.05,1.05,0,0,1,.11-.83,1.1,1.1,0,0,1,.65-.5,1.27,1.27,0,0,1,.28,0m0-2a3.21,3.21,0,0,0-.81.1,3.08,3.08,0,0,0,.8,6,2.82,2.82,0,0,0,.81-.11,3.07,3.07,0,0,0-.8-6Z"/><path class="cls-2" d="M52.81,96.93a2.08,2.08,0,0,1-2-1.53,2.12,2.12,0,0,1,.2-1.58,2,2,0,0,1,1.26-1,2,2,0,0,1,.54-.08,2.08,2.08,0,0,1,.54,4.09A2.5,2.5,0,0,1,52.81,96.93Z"/><path class="cls-2" d="M52.82,93.77a1.08,1.08,0,0,1,.27,2.12.9.9,0,0,1-.28,0,1.07,1.07,0,0,1-1-.79,1.07,1.07,0,0,1,.75-1.33,1.45,1.45,0,0,1,.29,0m0-2a3.21,3.21,0,0,0-.8.11,3.08,3.08,0,0,0,.8,6.05,3.22,3.22,0,0,0,.81-.11,3.08,3.08,0,0,0-.81-6Z"/><rect class="cls-1" x="26.94" y="72.78" width="33.25" height="33.25" transform="translate(-21.84 14.48) rotate(-15.14)"/><polyline class="cls-1" points="32.28 57.64 32.28 2 95.63 2 95.63 90.32 61.03 90.32"/><line class="cls-1" x1="46.38" y1="29.07" x2="81.53" y2="29.07"/><line class="cls-1" x1="45.62" y1="39.05" x2="82.28" y2="39.05"/><line class="cls-1" x1="54.03" y1="49.02" x2="73.87" y2="49.02"/><line class="cls-1" x1="54.03" y1="19.1" x2="73.87" y2="19.1"/></g></g></svg>