<svg xmlns="http://www.w3.org/2000/svg" viewBox="0 0 38.18 43.65"><defs><style>.cls-1{fill:none;stroke:#fff;stroke-linecap:round;stroke-linejoin:round;stroke-width:2px;}.cls-2{fill:#fff;}</style></defs><g id="Layer_2" data-name="Layer 2"><g id="Layer_2-2" data-name="Layer 2"><polyline class="cls-1" points="10.82 36.32 4.36 38.07 1 25.67 13.4 22.31 15.12 28.65"/><path class="cls-2" d="M14.34,32.12a1.19,1.19,0,1,1-1.46-.84A1.19,1.19,0,0,1,14.34,32.12Z"/><path class="cls-2" d="M8,33.63a1.19,1.19,0,0,1-2.3.62A1.19,1.19,0,1,1,8,33.63Z"/><path class="cls-2" d="M6.28,27.78A1.19,1.19,0,0,1,4,28.4a1.19,1.19,0,1,1,2.29-.62Z"/><path class="cls-2" d="M12.22,26a1.19,1.19,0,1,1-1.46-.84A1.18,1.18,0,0,1,12.22,26Z"/><path class="cls-2" d="M21.78,36.57a1.19,1.19,0,1,1-1.46-.84A1.18,1.18,0,0,1,21.78,36.57Z"/><rect class="cls-1" x="10.64" y="28.35" width="12.85" height="12.85" transform="matrix(0.97, -0.26, 0.26, 0.97, -8.49, 5.66)"/><polyline class="cls-1" points="12.7 22.5 12.7 1 37.18 1 37.18 35.13 23.81 35.13"/><line class="cls-1" x1="18.15" y1="11.46" x2="31.73" y2="11.46"/><line class="cls-1" x1="17.86" y1="15.32" x2="32.02" y2="15.32"/><line class="cls-1" x1="21.11" y1="19.17" x2="28.77" y2="19.17"/><line class="cls-1" x1="21.11" y1="7.61" x2="28.77" y2="7.61"/></g></g></svg>