<svg xmlns="http://www.w3.org/2000/svg" viewBox="0 0 43.85 41.15"><defs><style>.cls-1{fill:none;stroke:#fff;stroke-linecap:round;stroke-linejoin:round;stroke-width:2px;}.cls-2{fill:#fff;}</style></defs><g id="Layer_2" data-name="Layer 2"><g id="Layer_2-2" data-name="Layer 2"><path class="cls-1" d="M20.1,14.35a4.05,4.05,0,0,1,4.28-3.6,3.73,3.73,0,0,1,3.82,3.82l-.05-.86c.37,2.78-1.79,4.32-3.22,6a8.6,8.6,0,0,0-1.76,2.8,12.44,12.44,0,0,0-.3,3.23"/><path class="cls-2" d="M21.39,31.67a1.71,1.71,0,0,0,2.34.62,1.73,1.73,0,1,0-2.34-.62Z"/><path class="cls-1" d="M42.85,20.55a19.29,19.29,0,0,1-19.19,19.6A21,21,0,0,1,13.9,37.7c-1-.52-11.83,3-12.67,2.36C-.48,38.72,8,33,6.85,31.12a19.55,19.55,0,1,1,36-10.57Z"/></g></g></svg>