<svg xmlns="http://www.w3.org/2000/svg" viewBox="0 0 103.42 97"><defs><style>.cls-1{fill:none;stroke-linecap:round;stroke-linejoin:round;stroke-width:4px;}.cls-1,.cls-2{stroke:#fff;}.cls-2{fill:#fff;stroke-miterlimit:10;stroke-width:2px;}</style></defs><g id="Layer_2" data-name="Layer 2"><g id="Layer_4" data-name="Layer 4"><path class="cls-1" d="M45.23,33.72c.3-4.87,4.86-8.7,10.18-8.56s9.38,4.2,9.07,9.07l-.13-2c.89,6.59-4.25,10.25-7.64,14.23a20.66,20.66,0,0,0-4.19,6.64c-.84,2.34-.71,7.68-.71,7.68"/><path class="cls-2" d="M49.79,72a2.19,2.19,0,1,0,.72-3A2.21,2.21,0,0,0,49.79,72Z"/><path class="cls-1" d="M101.42,48.45C101.42,74.1,81.49,95,55.84,95a49.76,49.76,0,0,1-23.2-5.82c-2.25-1.24-28.1,7.2-30.1,5.62-4-3.19,16.15-16.9,13.36-21.24a46.45,46.45,0,1,1,85.52-25.11Z"/></g></g></svg>