<svg xmlns="http://www.w3.org/2000/svg" viewBox="0 0 30.5 42.63"><defs><style>.cls-1{fill:#fff;}</style></defs><g id="Layer_2" data-name="Layer 2"><g id="Layer_3" data-name="Layer 3"><path class="cls-1" d="M27.08,7.12v-5h2.35a1.07,1.07,0,1,0,0-2.13H1.07a1.07,1.07,0,1,0,0,2.13H3.42v5a11.36,11.36,0,0,0,3.46,8.1l6.81,6.59L7.18,27.94a11.31,11.31,0,0,0-3.55,8.23V40.5H1.07a1.07,1.07,0,1,0,0,2.13H29.43a1.07,1.07,0,1,0,0-2.13H27.18V36.25a11.32,11.32,0,0,0-3.67-8.33l-6.7-6.12,6.81-6.58A11.37,11.37,0,0,0,27.08,7.12Zm-2,29.13V40.5H5.77V36.17A9.15,9.15,0,0,1,8.64,29.5l6.63-6.22,6.8,6.22A9.13,9.13,0,0,1,25.05,36.25Zm-9.8-15.91L8.36,13.69A9.24,9.24,0,0,1,5.55,7.12v-5H25v5a9.24,9.24,0,0,1-2.81,6.57Z"/></g></g></svg>