<svg xmlns="http://www.w3.org/2000/svg" viewBox="0 0 35.7 42.6"><defs><style>.cls-1{fill:none;stroke:#e26b54;stroke-linecap:round;stroke-linejoin:round;stroke-width:3px;}</style></defs><g id="Layer_2" data-name="Layer 2"><g id="Layer_3" data-name="Layer 3"><path class="cls-1" d="M17.94,21.29l7-6.21A15.15,15.15,0,0,0,30.13,4.19c0-1,0-1.88,0-2.69"/><polyline class="cls-1" points="17.93 21.3 17.94 21.31 17.93 21.3"/><path class="cls-1" d="M5.73,1.52c0,.93,0,2,.06,3.13A14.93,14.93,0,0,0,10.85,15l7.08,6.3,0,0-6.67,5.55A15.1,15.1,0,0,0,5.8,37.61c-.07,1.27-.07,2.48-.07,3.47"/><path class="cls-1" d="M30.16,41.1c0-1,0-2.12-.05-3.35a15,15,0,0,0-5.5-10.93l-6.67-5.51"/><line class="cls-1" x1="1.5" y1="41.1" x2="34.2" y2="41.1"/><line class="cls-1" x1="1.5" y1="1.5" x2="34.2" y2="1.5"/></g></g></svg>