<svg xmlns="http://www.w3.org/2000/svg" viewBox="0 0 27.85 34.32"><defs><style>.cls-1{fill:#fff;}</style></defs><g id="Layer_2" data-name="Layer 2"><g id="Layer_3" data-name="Layer 3"><path class="cls-1" d="M21.69,2.94H15.23V0H6.46V2.94H0V7.59H21.69ZM8.78,2.32h4.13v.62H8.78Z"/><path class="cls-1" d="M19.63,16.6l.44-6.68H1.62L3.1,32.38h8.84A10,10,0,0,1,19.63,16.6Z"/><path class="cls-1" d="M20.14,18.92a7.7,7.7,0,1,0,7.71,7.7A7.7,7.7,0,0,0,20.14,18.92Zm4.2,10.25L22.7,30.82l-2.56-2.56-2.55,2.56L16,29.17l2.55-2.55L16,24.06l1.64-1.64L20.14,25l2.56-2.55,1.64,1.64-2.55,2.56Z"/></g></g></svg>